<?xml version="1.0" standalone="no"?>
<!DOCTYPE svg PUBLIC "-//W3C//DTD SVG 20010904//EN"
 "http://www.w3.org/TR/2001/REC-SVG-20010904/DTD/svg10.dtd">
<svg version="1.0" xmlns="http://www.w3.org/2000/svg"
 width="840.000000pt" height="878.000000pt" viewBox="0 0 840.000000 878.000000"
 preserveAspectRatio="xMidYMid meet">

<g transform="translate(0.000000,878.000000) scale(0.100000,-0.100000)"
fill="#000000" stroke="none">
<path d="M475 8367 c-102 -34 -181 -100 -228 -192 -29 -55 -31 -67 -32 -160 0
-90 3 -106 29 -155 23 -45 328 -356 1734 -1762 l1707 -1708 -1711 -1712
c-1930 -1932 -1759 -1746 -1759 -1918 1 -86 4 -100 32 -155 38 -73 105 -138
181 -173 49 -23 70 -27 147 -27 168 1 -14 -166 1913 1759 l1712 1711 1708
-1706 c1925 -1924 1751 -1764 1917 -1764 78 0 98 4 150 28 76 35 138 95 178
172 29 56 31 67 32 160 0 90 -3 106 -29 155 -23 45 -328 356 -1734 1762
l-1707 1708 1711 1712 c1930 1932 1759 1746 1759 1918 -1 86 -4 100 -32 155
-38 73 -105 138 -181 173 -49 23 -70 27 -147 27 -166 0 8 160 -1917 -1764
l-1708 -1706 -1712 1711 c-1548 1546 -1718 1713 -1767 1734 -67 27 -188 36
-246 17z"/>
</g>
</svg>
